<?xml version="1.0" encoding="UTF-8" standalone="no"?>
<!DOCTYPE svg PUBLIC "-//W3C//DTD SVG 1.1//EN"
 "http://www.w3.org/Graphics/SVG/1.1/DTD/svg11.dtd">
<!-- Generated by graphviz version 2.40.1 (20161225.0304)
 -->
<!-- Title: classes_Pyreverse Pages: 1 -->
<svg width="642pt" height="738pt"
 viewBox="0.00 0.00 642.33 738.20" xmlns="http://www.w3.org/2000/svg" xmlns:xlink="http://www.w3.org/1999/xlink">
<g id="graph0" class="graph" transform="scale(1 1) rotate(0) translate(4 734.2)">
<title>classes_Pyreverse</title>
<polygon fill="#ffffff" stroke="transparent" points="-4,4 -4,-734.2 638.3297,-734.2 638.3297,4 -4,4"/>
<!-- 0 -->
<g id="node1" class="node">
<title>0</title>
<polygon fill="none" stroke="#000000" points="182.2889,-470.5 182.2889,-729.7 421.4041,-729.7 421.4041,-470.5 182.2889,-470.5"/>
<text text-anchor="middle" x="301.8465" y="-713.1" font-family="Times,serif" font-size="14.00" fill="#000000">control</text>
<polyline fill="none" stroke="#000000" points="182.2889,-704.9 421.4041,-704.9 "/>
<text text-anchor="start" x="190.2889" y="-688.3" font-family="Times,serif" font-size="14.00" fill="#000000">database</text>
<text text-anchor="start" x="190.2889" y="-671.5" font-family="Times,serif" font-size="14.00" fill="#000000">user_id : list</text>
<polyline fill="none" stroke="#000000" points="182.2889,-663.3 421.4041,-663.3 "/>
<text text-anchor="start" x="190.2889" y="-646.7" font-family="Times,serif" font-size="14.00" fill="#000000">check(info)</text>
<text text-anchor="start" x="190.2889" y="-629.9" font-family="Times,serif" font-size="14.00" fill="#000000">get_all_user_id()</text>
<text text-anchor="start" x="190.2889" y="-613.1" font-family="Times,serif" font-size="14.00" fill="#000000">get_book_brief_info()</text>
<text text-anchor="start" x="190.2889" y="-596.3" font-family="Times,serif" font-size="14.00" fill="#000000">get_book_detail_info(id)</text>
<text text-anchor="start" x="190.2889" y="-579.5" font-family="Times,serif" font-size="14.00" fill="#000000">get_question_by_bookid(bookid)</text>
<text text-anchor="start" x="190.2889" y="-562.7" font-family="Times,serif" font-size="14.00" fill="#000000">get_question_by_category(category)</text>
<text text-anchor="start" x="190.2889" y="-545.9" font-family="Times,serif" font-size="14.00" fill="#000000">get_question_random()</text>
<text text-anchor="start" x="190.2889" y="-529.1" font-family="Times,serif" font-size="14.00" fill="#000000">get_user_info_by_id(id)</text>
<text text-anchor="start" x="190.2889" y="-512.3" font-family="Times,serif" font-size="14.00" fill="#000000">get_user_statistics(userid)</text>
<text text-anchor="start" x="190.2889" y="-495.5" font-family="Times,serif" font-size="14.00" fill="#000000">load_question(filename)</text>
<text text-anchor="start" x="190.2889" y="-478.7" font-family="Times,serif" font-size="14.00" fill="#000000">new_user(name, gender, tele, pw, brief)</text>
</g>
<!-- 1 -->
<g id="node2" class="node">
<title>1</title>
<polygon fill="none" stroke="#000000" points="129.7497,-397.5 129.7497,-433.5 193.9433,-433.5 193.9433,-397.5 129.7497,-397.5"/>
<text text-anchor="middle" x="161.8465" y="-411.4" font-family="Times,serif" font-size="14.00" fill="#000000">database</text>
</g>
<!-- 1&#45;&gt;0 -->
<g id="edge2" class="edge">
<title>1&#45;&gt;0</title>
<path fill="none" stroke="#000000" d="M175.5252,-433.5363C181.394,-441.2747 188.8132,-451.0576 197.1035,-461.9889"/>
<polygon fill="#000000" stroke="#000000" points="203.2844,-470.1388 193.6561,-464.8902 200.263,-466.1549 197.2416,-462.171 197.2416,-462.171 197.2416,-462.171 200.263,-466.1549 200.8271,-459.4517 203.2844,-470.1388 203.2844,-470.1388"/>
</g>
<!-- 2 -->
<g id="node3" class="node">
<title>2</title>
<polygon fill="none" stroke="#000000" points="0,-42.5 0,-318.5 219.693,-318.5 219.693,-42.5 0,-42.5"/>
<text text-anchor="middle" x="109.8465" y="-301.9" font-family="Times,serif" font-size="14.00" fill="#000000">my_sql</text>
<polyline fill="none" stroke="#000000" points="0,-293.7 219.693,-293.7 "/>
<text text-anchor="start" x="8" y="-277.1" font-family="Times,serif" font-size="14.00" fill="#000000">database_name</text>
<polyline fill="none" stroke="#000000" points="0,-268.9 219.693,-268.9 "/>
<text text-anchor="start" x="8" y="-252.3" font-family="Times,serif" font-size="14.00" fill="#000000">Create_Database()</text>
<text text-anchor="start" x="8" y="-235.5" font-family="Times,serif" font-size="14.00" fill="#000000">Create_table(table_name, columns)</text>
<text text-anchor="start" x="8" y="-218.7" font-family="Times,serif" font-size="14.00" fill="#000000">Drop_Database()</text>
<text text-anchor="start" x="8" y="-201.9" font-family="Times,serif" font-size="14.00" fill="#000000">Drop_table(table_name)</text>
<text text-anchor="start" x="8" y="-185.1" font-family="Times,serif" font-size="14.00" fill="#000000">Update_statistics(info)</text>
<text text-anchor="start" x="8" y="-168.3" font-family="Times,serif" font-size="14.00" fill="#000000">Update_table(table_name, item)</text>
<text text-anchor="start" x="8" y="-151.5" font-family="Times,serif" font-size="14.00" fill="#000000">Update_user(info)</text>
<text text-anchor="start" x="8" y="-134.7" font-family="Times,serif" font-size="14.00" fill="#000000">execute_sql(sql)</text>
<text text-anchor="start" x="8" y="-117.9" font-family="Times,serif" font-size="14.00" fill="#000000">get_data(table_name)</text>
<text text-anchor="start" x="8" y="-101.1" font-family="Times,serif" font-size="14.00" fill="#000000">get_data_by_attr(info)</text>
<text text-anchor="start" x="8" y="-84.3" font-family="Times,serif" font-size="14.00" fill="#000000">get_sepcific_data_by_attr(info)</text>
<text text-anchor="start" x="8" y="-67.5" font-family="Times,serif" font-size="14.00" fill="#000000">get_specific_data(table_name, item)</text>
<text text-anchor="start" x="8" y="-50.7" font-family="Times,serif" font-size="14.00" fill="#000000">translate(column_list)</text>
</g>
<!-- 2&#45;&gt;1 -->
<g id="edge1" class="edge">
<title>2&#45;&gt;1</title>
<path fill="none" stroke="#000000" d="M140.3959,-318.5597C146.1716,-344.6615 151.6382,-369.3662 155.6072,-387.3034"/>
<polygon fill="#000000" stroke="#000000" points="157.8182,-397.2951 151.2639,-388.5035 156.7379,-392.4132 155.6576,-387.5313 155.6576,-387.5313 155.6576,-387.5313 156.7379,-392.4132 160.0513,-386.559 157.8182,-397.2951 157.8182,-397.2951"/>
</g>
<!-- 3 -->
<g id="node4" class="node">
<title>3</title>
<polygon fill="none" stroke="#000000" points="384.0106,-92.9 384.0106,-268.1 467.6824,-268.1 467.6824,-92.9 384.0106,-92.9"/>
<text text-anchor="middle" x="425.8465" y="-251.5" font-family="Times,serif" font-size="14.00" fill="#000000">question</text>
<polyline fill="none" stroke="#000000" points="384.0106,-243.3 467.6824,-243.3 "/>
<text text-anchor="start" x="392.0106" y="-226.7" font-family="Times,serif" font-size="14.00" fill="#000000">ans</text>
<text text-anchor="start" x="392.0106" y="-209.9" font-family="Times,serif" font-size="14.00" fill="#000000">book_id</text>
<text text-anchor="start" x="392.0106" y="-193.1" font-family="Times,serif" font-size="14.00" fill="#000000">category</text>
<text text-anchor="start" x="392.0106" y="-176.3" font-family="Times,serif" font-size="14.00" fill="#000000">option : list</text>
<text text-anchor="start" x="392.0106" y="-159.5" font-family="Times,serif" font-size="14.00" fill="#000000">option_num</text>
<text text-anchor="start" x="392.0106" y="-142.7" font-family="Times,serif" font-size="14.00" fill="#000000">question</text>
<text text-anchor="start" x="392.0106" y="-125.9" font-family="Times,serif" font-size="14.00" fill="#000000">type</text>
<polyline fill="none" stroke="#000000" points="384.0106,-117.7 467.6824,-117.7 "/>
<text text-anchor="start" x="392.0106" y="-101.1" font-family="Times,serif" font-size="14.00" fill="#000000">output()</text>
</g>
<!-- 7 -->
<g id="node8" class="node">
<title>7</title>
<polygon fill="none" stroke="#000000" points="457.7884,-433.5 393.9046,-433.5 393.9046,-397.5 457.7884,-397.5 457.7884,-433.5"/>
<text text-anchor="middle" x="425.8465" y="-411.3" font-family="Times,serif" font-size="14.00" fill="#000000">question</text>
</g>
<!-- 3&#45;&gt;7 -->
<g id="edge3" class="edge">
<title>3&#45;&gt;7</title>
<path fill="none" stroke="#000000" d="M425.8465,-268.3395C425.8465,-310.1866 425.8465,-357.4042 425.8465,-386.8104"/>
<polygon fill="#000000" stroke="#000000" points="425.8465,-397.1601 421.3466,-387.1601 425.8465,-392.1601 425.8466,-387.1601 425.8466,-387.1601 425.8466,-387.1601 425.8465,-392.1601 430.3466,-387.1602 425.8465,-397.1601 425.8465,-397.1601"/>
</g>
<!-- 4 -->
<g id="node5" class="node">
<title>4</title>
<polygon fill="none" stroke="#000000" points="485.3633,-59.3 485.3633,-301.7 634.3297,-301.7 634.3297,-59.3 485.3633,-59.3"/>
<text text-anchor="middle" x="559.8465" y="-285.1" font-family="Times,serif" font-size="14.00" fill="#000000">test</text>
<polyline fill="none" stroke="#000000" points="485.3633,-276.9 634.3297,-276.9 "/>
<text text-anchor="start" x="493.3633" y="-260.3" font-family="Times,serif" font-size="14.00" fill="#000000">all : int</text>
<text text-anchor="start" x="493.3633" y="-243.5" font-family="Times,serif" font-size="14.00" fill="#000000">answer : dict</text>
<text text-anchor="start" x="493.3633" y="-226.7" font-family="Times,serif" font-size="14.00" fill="#000000">category : dict</text>
<text text-anchor="start" x="493.3633" y="-209.9" font-family="Times,serif" font-size="14.00" fill="#000000">null : int</text>
<text text-anchor="start" x="493.3633" y="-193.1" font-family="Times,serif" font-size="14.00" fill="#000000">questions : dict</text>
<text text-anchor="start" x="493.3633" y="-176.3" font-family="Times,serif" font-size="14.00" fill="#000000">questionscategory : dict</text>
<text text-anchor="start" x="493.3633" y="-159.5" font-family="Times,serif" font-size="14.00" fill="#000000">right : int</text>
<text text-anchor="start" x="493.3633" y="-142.7" font-family="Times,serif" font-size="14.00" fill="#000000">score : int</text>
<text text-anchor="start" x="493.3633" y="-125.9" font-family="Times,serif" font-size="14.00" fill="#000000">wrong : int</text>
<polyline fill="none" stroke="#000000" points="485.3633,-117.7 634.3297,-117.7 "/>
<text text-anchor="start" x="493.3633" y="-101.1" font-family="Times,serif" font-size="14.00" fill="#000000">get_category()</text>
<text text-anchor="start" x="493.3633" y="-84.3" font-family="Times,serif" font-size="14.00" fill="#000000">get_stat()</text>
<text text-anchor="start" x="493.3633" y="-67.5" font-family="Times,serif" font-size="14.00" fill="#000000">print()</text>
</g>
<!-- 4&#45;&gt;7 -->
<g id="edge4" class="edge">
<title>4&#45;&gt;7</title>
<path fill="none" stroke="#000000" d="M510.59,-301.8776C500.5004,-322.2349 489.1574,-342.6775 476.8465,-361 470.0271,-371.1493 461.3061,-381.2211 453.0116,-389.8936"/>
<polygon fill="#000000" stroke="#000000" points="445.891,-397.1215 449.7034,-386.8396 449.4,-393.5596 452.9091,-389.9977 452.9091,-389.9977 452.9091,-389.9977 449.4,-393.5596 456.1147,-393.1559 445.891,-397.1215 445.891,-397.1215"/>
</g>
<!-- 5 -->
<g id="node6" class="node">
<title>5</title>
<polygon fill="none" stroke="#000000" points="340.7403,-433.5 262.9527,-433.5 262.9527,-397.5 340.7403,-397.5 340.7403,-433.5"/>
<text text-anchor="middle" x="301.8465" y="-411.3" font-family="Times,serif" font-size="14.00" fill="#000000">webcrawer</text>
</g>
<!-- 5&#45;&gt;0 -->
<g id="edge6" class="edge">
<title>5&#45;&gt;0</title>
<path fill="none" stroke="#000000" d="M301.8465,-433.5363C301.8465,-440.8239 301.8465,-449.9247 301.8465,-460.0904"/>
<polygon fill="#000000" stroke="#000000" points="301.8465,-470.1388 297.3466,-460.1387 301.8465,-465.1388 301.8466,-460.1388 301.8466,-460.1388 301.8466,-460.1388 301.8465,-465.1388 306.3466,-460.1388 301.8465,-470.1388 301.8465,-470.1388"/>
</g>
<!-- 6 -->
<g id="node7" class="node">
<title>6</title>
<polygon fill="none" stroke="#000000" points="237.8507,-.5 237.8507,-360.5 365.8423,-360.5 365.8423,-.5 237.8507,-.5"/>
<text text-anchor="middle" x="301.8465" y="-343.9" font-family="Times,serif" font-size="14.00" fill="#000000">book</text>
<polyline fill="none" stroke="#000000" points="237.8507,-335.7 365.8423,-335.7 "/>
<text text-anchor="start" x="245.8507" y="-319.1" font-family="Times,serif" font-size="14.00" fill="#000000">author : str</text>
<text text-anchor="start" x="245.8507" y="-302.3" font-family="Times,serif" font-size="14.00" fill="#000000">brief : str</text>
<text text-anchor="start" x="245.8507" y="-285.5" font-family="Times,serif" font-size="14.00" fill="#000000">category : str</text>
<text text-anchor="start" x="245.8507" y="-268.7" font-family="Times,serif" font-size="14.00" fill="#000000">comment_num : int</text>
<text text-anchor="start" x="245.8507" y="-251.9" font-family="Times,serif" font-size="14.00" fill="#000000">country : str</text>
<text text-anchor="start" x="245.8507" y="-235.1" font-family="Times,serif" font-size="14.00" fill="#000000">douban_bookid : str</text>
<text text-anchor="start" x="245.8507" y="-218.3" font-family="Times,serif" font-size="14.00" fill="#000000">frame : str</text>
<text text-anchor="start" x="245.8507" y="-201.5" font-family="Times,serif" font-size="14.00" fill="#000000">id : int</text>
<text text-anchor="start" x="245.8507" y="-184.7" font-family="Times,serif" font-size="14.00" fill="#000000">isbn : str</text>
<text text-anchor="start" x="245.8507" y="-167.9" font-family="Times,serif" font-size="14.00" fill="#000000">link : str</text>
<text text-anchor="start" x="245.8507" y="-151.1" font-family="Times,serif" font-size="14.00" fill="#000000">name : str</text>
<text text-anchor="start" x="245.8507" y="-134.3" font-family="Times,serif" font-size="14.00" fill="#000000">name_o : str</text>
<text text-anchor="start" x="245.8507" y="-117.5" font-family="Times,serif" font-size="14.00" fill="#000000">page : str</text>
<text text-anchor="start" x="245.8507" y="-100.7" font-family="Times,serif" font-size="14.00" fill="#000000">price : str</text>
<text text-anchor="start" x="245.8507" y="-83.9" font-family="Times,serif" font-size="14.00" fill="#000000">publisher : str</text>
<text text-anchor="start" x="245.8507" y="-67.1" font-family="Times,serif" font-size="14.00" fill="#000000">star : float, int</text>
<text text-anchor="start" x="245.8507" y="-50.3" font-family="Times,serif" font-size="14.00" fill="#000000">trans : str</text>
<text text-anchor="start" x="245.8507" y="-33.5" font-family="Times,serif" font-size="14.00" fill="#000000">year : str</text>
<polyline fill="none" stroke="#000000" points="237.8507,-25.3 365.8423,-25.3 "/>
<text text-anchor="start" x="245.8507" y="-8.7" font-family="Times,serif" font-size="14.00" fill="#000000">output()</text>
</g>
<!-- 6&#45;&gt;5 -->
<g id="edge5" class="edge">
<title>6&#45;&gt;5</title>
<path fill="none" stroke="#000000" d="M301.8465,-360.6995C301.8465,-370.4649 301.8465,-379.4132 301.8465,-387.1214"/>
<polygon fill="#000000" stroke="#000000" points="301.8465,-397.1487 297.3466,-387.1486 301.8465,-392.1487 301.8466,-387.1487 301.8466,-387.1487 301.8466,-387.1487 301.8465,-392.1487 306.3466,-387.1487 301.8465,-397.1487 301.8465,-397.1487"/>
</g>
<!-- 7&#45;&gt;0 -->
<g id="edge7" class="edge">
<title>7&#45;&gt;0</title>
<path fill="none" stroke="#000000" d="M413.7311,-433.5363C408.5835,-441.1996 402.0892,-450.8678 394.8325,-461.6708"/>
<polygon fill="#000000" stroke="#000000" points="389.1444,-470.1388 390.985,-459.3284 391.9324,-465.9882 394.7205,-461.8377 394.7205,-461.8377 394.7205,-461.8377 391.9324,-465.9882 398.456,-464.3469 389.1444,-470.1388 389.1444,-470.1388"/>
</g>
</g>
</svg>
